<svg width="172" height="41" viewBox="0 0 172 41" fill="none" xmlns="http://www.w3.org/2000/svg">
<path d="M0.330116 23.6255C0.147798 23.6255 0 23.4799 0 23.3004V0.699609C0 0.520063 0.147798 0.374511 0.330116 0.374511H8.77844C13.5955 0.374511 16.9864 2.9961 16.9864 7.70871C16.9864 10.7804 15.4818 13.0256 13.0531 14.145C12.8725 14.2282 12.796 14.4452 12.895 14.6156L17.8448 23.139C17.9707 23.3557 17.8118 23.6255 17.5582 23.6255H13.4404C13.3209 23.6255 13.2107 23.5619 13.1523 23.4592L8.46099 15.2092C8.40261 15.1065 8.29245 15.0429 8.17296 15.0429H4.64011C4.45779 15.0429 4.30999 15.1885 4.30999 15.368V23.3004C4.30999 23.4799 4.16219 23.6255 3.97987 23.6255H0.330116ZM4.30999 10.9727C4.30999 11.1522 4.45779 11.2978 4.64011 11.2978H8.84182C11.1553 11.2978 12.6764 9.89337 12.6764 7.70871C12.6764 5.52406 11.1553 4.11964 8.84182 4.11964H4.64011C4.45779 4.11964 4.30999 4.26519 4.30999 4.44473V10.9727Z" fill="#59524C"/>
<path d="M26.4893 24C21.4187 24 17.3623 20.2549 17.3623 15.1365C17.3623 10.0182 21.387 6.27308 26.4893 6.27308C31.5282 6.27308 35.5847 10.0182 35.5847 15.1365C35.5847 20.2861 31.4965 24 26.4893 24ZM21.6723 15.1365C21.6723 18.1014 23.6688 20.2549 26.4893 20.2549C29.2464 20.2549 31.243 18.1014 31.243 15.1365C31.243 12.2029 29.2464 10.0182 26.4893 10.0182C23.6688 10.0182 21.6723 12.2029 21.6723 15.1365Z" fill="#59524C"/>
<path d="M37.4785 23.6255C37.2962 23.6255 37.1484 23.4799 37.1484 23.3004V0.325097C37.1484 0.145551 37.2962 0 37.4785 0H40.9698C41.1521 0 41.2999 0.145551 41.2999 0.325098V23.3004C41.2999 23.4799 41.1521 23.6255 40.9698 23.6255H37.4785Z" fill="#59524C"/>
<path d="M43.8786 23.6255C43.6963 23.6255 43.5485 23.4799 43.5485 23.3004V0.325097C43.5485 0.145551 43.6963 0 43.8786 0H47.37C47.5523 0 47.7001 0.145551 47.7001 0.325098V23.3004C47.7001 23.4799 47.5523 23.6255 47.37 23.6255H43.8786Z" fill="#59524C"/>
<path d="M54.5259 23.6255C54.385 23.6255 54.2596 23.5373 54.2137 23.4061L48.5145 7.07837C48.4408 6.86732 48.6 6.64759 48.8266 6.64759H52.4993C52.6415 6.64759 52.7677 6.73727 52.8126 6.87016L56.0463 16.4518C56.1455 16.7457 56.5662 16.7494 56.6709 16.4574L60.1072 6.86454C60.1537 6.73454 60.2785 6.64759 60.4185 6.64759H63.627C63.7672 6.64759 63.8921 6.73479 63.9385 6.86506L67.3445 16.4244C67.4486 16.7168 67.8697 16.7136 67.9691 16.4196L71.2015 6.86989C71.2465 6.73714 71.3726 6.64759 71.5147 6.64759H75.1876C75.4142 6.64759 75.5734 6.86732 75.4998 7.07837L69.8005 23.4061C69.7547 23.5373 69.6293 23.6255 69.4883 23.6255H66.2517C66.1107 23.6255 65.9853 23.5373 65.9395 23.406L62.3327 13.0602C62.2309 12.7682 61.812 12.7672 61.7088 13.0587L58.0437 23.4074C57.9975 23.538 57.8724 23.6255 57.732 23.6255H54.5259Z" fill="#59524C"/>
<path d="M84.4617 24C79.3912 24 75.3347 20.2549 75.3347 15.1365C75.3347 10.0182 79.3595 6.27308 84.4617 6.27308C89.5006 6.27308 93.5571 10.0182 93.5571 15.1365C93.5571 20.2861 89.4689 24 84.4617 24ZM79.6447 15.1365C79.6447 18.1014 81.6412 20.2549 84.4617 20.2549C87.2189 20.2549 89.2154 18.1014 89.2154 15.1365C89.2154 12.2029 87.2189 10.0182 84.4617 10.0182C81.6412 10.0182 79.6447 12.2029 79.6447 15.1365Z" fill="#59524C"/>
<path d="M94.244 23.6255C94.0617 23.6255 93.9139 23.4799 93.9139 23.3004V6.97269C93.9139 6.79314 94.0617 6.64759 94.244 6.64759H97.4818C97.6641 6.64759 97.8119 6.79314 97.8119 6.97269V7.48823C97.8119 7.82341 98.3352 7.98171 98.5774 7.74621C99.5775 6.77365 101.031 6.27308 102.692 6.27308C106.495 6.27308 109.189 8.89467 109.189 12.7022V23.3004C109.189 23.4799 109.041 23.6255 108.859 23.6255H105.368C105.185 23.6255 105.037 23.4799 105.037 23.3004V13.6697C105.037 11.4226 103.611 10.0182 101.551 10.0182C99.4915 10.0182 98.0654 11.4538 98.0654 13.6697V23.3004C98.0654 23.4799 97.9176 23.6255 97.7353 23.6255H94.244Z" fill="#59524C"/>
<path d="M119.133 24C114.126 24 110.418 20.13 110.418 15.1365C110.418 10.143 114.189 6.27308 119.101 6.27308C120.975 6.27308 122.578 6.80768 123.775 7.78279C124.008 7.97226 124.394 7.81909 124.394 7.52176V0.325097C124.394 0.145551 124.541 0 124.724 0H128.215C128.397 0 128.545 0.145551 128.545 0.325098V19.5995C128.545 21.1538 128.62 22.1651 128.838 23.226C128.88 23.431 128.723 23.6255 128.51 23.6255H125.264C125.108 23.6255 124.973 23.5174 124.941 23.3666C124.877 23.0612 124.82 22.781 124.775 22.5137C124.726 22.2221 124.318 22.0892 124.095 22.2866C122.831 23.4026 121.063 24 119.133 24ZM114.728 15.1365C114.728 18.1014 116.756 20.2549 119.576 20.2549C122.365 20.2549 124.394 18.1326 124.394 15.1365C124.394 12.1717 122.365 10.0182 119.576 10.0182C116.756 10.0182 114.728 12.2029 114.728 15.1365Z" fill="#59524C"/>
<path d="M138.999 24C133.707 24 130.126 20.0676 130.126 15.1053C130.126 10.0182 133.834 6.27308 138.682 6.27308C144.038 6.27308 147.08 10.0494 147.08 14.5748C147.08 15.1036 147.035 15.6324 146.925 16.0663C146.89 16.202 146.763 16.2913 146.621 16.2913H134.8C134.605 16.2913 134.452 16.4581 134.484 16.6478C134.869 18.9414 136.649 20.4109 139.031 20.4109C140.804 20.4109 142.081 19.6514 142.862 18.4863C142.958 18.3431 143.146 18.2851 143.302 18.3607L146.103 19.7138C146.26 19.7897 146.331 19.9739 146.254 20.1288C145.118 22.4139 142.381 24 138.999 24ZM134.627 12.7817C134.57 12.9803 134.727 13.1704 134.937 13.1704H142.283C142.477 13.1704 142.63 13.0059 142.597 12.8176C142.27 10.9196 140.744 9.64369 138.682 9.64369C136.714 9.64369 135.195 10.7763 134.627 12.7817Z" fill="#59524C"/>
<path d="M148.973 23.6255C148.791 23.6255 148.643 23.4799 148.643 23.3004V6.97269C148.643 6.79314 148.791 6.64759 148.973 6.64759H152.211C152.393 6.64759 152.541 6.79314 152.541 6.97269V7.53196C152.541 7.88092 153.129 8.03866 153.374 7.78629C154.309 6.82147 155.623 6.46034 157.2 6.46034H157.884C158.066 6.46034 158.214 6.60589 158.214 6.78544V9.75553C158.214 9.93507 158.066 10.0806 157.884 10.0806H156.724C154.379 10.0806 152.794 11.5787 152.794 14.1691V23.3004C152.794 23.4799 152.647 23.6255 152.464 23.6255H148.973Z" fill="#59524C"/>
<path d="M165.472 24C161.91 24 159.062 22.2423 157.966 19.4649C157.906 19.3114 157.979 19.1402 158.13 19.069L160.673 17.868C160.838 17.7901 161.035 17.8596 161.121 18.0183C162.063 19.7479 163.639 20.7854 165.472 20.7854C166.961 20.7854 167.944 20.0988 167.944 18.9753C167.944 18.0078 167.056 17.5085 165.947 17.1964L163.126 16.4161C160.211 15.6047 158.69 13.8257 158.69 11.485C158.69 8.36411 161.32 6.27308 165.06 6.27308C168.181 6.27308 170.77 7.81506 171.915 10.3934C171.984 10.5497 171.91 10.7299 171.753 10.8024L169.189 11.9895C169.013 12.0707 168.806 11.9856 168.722 11.8136C168.068 10.4704 166.644 9.61248 165.028 9.61248C163.634 9.61248 162.778 10.2991 162.778 11.2978C162.778 12.2653 163.602 12.7334 164.806 13.0767L167.563 13.8882C170.415 14.6996 172 16.4473 172 18.8192C172 21.909 169.37 24 165.472 24Z" fill="#59524C"/>
<path d="M13.3464 38.4452C10.825 38.4452 9 36.4678 9 33.7288C9 30.9898 10.825 29 13.3464 29C15.1594 29 16.4801 30.1423 16.9244 31.2845L16.0599 31.7144C15.6156 30.5967 14.6551 29.9212 13.3464 29.9212C11.3653 29.9212 9.96053 31.4565 9.96053 33.7288C9.96053 36.001 11.3653 37.5241 13.3464 37.5241C15.0994 37.5241 16.4441 36.259 16.4441 34.4903V34.4289H13.3464V33.5691H17.2846V38.2979H16.4441V36.8976C15.7597 37.8557 14.6311 38.4452 13.3464 38.4452Z" fill="#59524C"/>
<path d="M20.4291 38.4452C19.2044 38.4452 18.3039 37.6714 18.3039 36.5906C18.3039 35.5711 18.9282 34.7605 20.357 34.5148L22.6863 34.1218V33.7779C22.6863 32.9918 22.062 32.4514 21.1735 32.4514C20.3811 32.4514 19.7687 32.8936 19.4806 33.5322L18.6641 33.0778C19.0243 32.2426 20.0929 31.567 21.1735 31.567C22.5903 31.567 23.5868 32.4759 23.5868 33.7779V36.5169C23.5868 37.1801 23.6228 37.6469 23.7429 38.2979H22.8424C22.7584 37.868 22.7223 37.5732 22.6983 37.3275C22.2901 37.9785 21.4376 38.4452 20.4291 38.4452ZM19.2644 36.5537C19.2644 37.1433 19.7687 37.61 20.4891 37.61C21.7978 37.61 22.6863 36.6643 22.6863 35.4483V34.957L20.5732 35.3132C19.6366 35.4729 19.2644 35.9519 19.2644 36.5537Z" fill="#59524C"/>
<path d="M25.1989 38.2979V31.7144H26.0994V32.5251C26.4836 31.9232 27.156 31.567 27.8884 31.567C28.7769 31.567 29.5573 32.0583 29.9535 32.8199C30.3377 32.0092 31.1302 31.567 31.9826 31.567C33.2793 31.567 34.384 32.6233 34.384 34.0235V38.2979H33.4835V34.3797C33.4835 33.1883 32.7991 32.4882 31.8746 32.4882C30.9501 32.4882 30.2417 33.2006 30.2417 34.3797V38.2979H29.3412V34.3797C29.3412 33.1883 28.6568 32.4882 27.7323 32.4882C26.8078 32.4882 26.0994 33.2006 26.0994 34.3797V38.2979H25.1989Z" fill="#59524C"/>
<path d="M38.7928 38.4452C36.9918 38.4452 35.5991 36.9836 35.5991 34.9816C35.5991 33.0041 36.9318 31.567 38.6968 31.567C40.5458 31.567 41.6624 33.1269 41.6624 34.6991C41.6624 34.8588 41.6504 35.0798 41.6144 35.2886H36.5476C36.5836 36.7011 37.6402 37.5855 38.7928 37.5855C39.7293 37.5855 40.3537 37.0696 40.7619 36.3818L41.5303 36.7994C41.1341 37.696 40.1015 38.4452 38.7928 38.4452ZM36.5716 34.4289H40.6899C40.6899 33.262 39.7774 32.4268 38.6968 32.4268C37.6522 32.4268 36.7037 33.2006 36.5716 34.4289Z" fill="#59524C"/>
<path d="M47.2714 38.3715C46.1187 38.3715 45.4704 37.6592 45.4704 36.3818V32.6356H44.2817V31.7144H44.5819C45.1222 31.7144 45.4704 31.3091 45.4704 30.7441V30.1914H46.3709V31.7144H47.7876V32.6356H46.3709V36.3818C46.3709 37.045 46.623 37.5118 47.4274 37.5118C47.5595 37.5118 47.7516 37.4995 47.8837 37.4749V38.2979C47.6916 38.347 47.4154 38.3715 47.2714 38.3715Z" fill="#59524C"/>
<path d="M49.2248 38.2979V29H50.1253V32.5251C50.5095 31.9232 51.1819 31.567 51.9743 31.567C53.331 31.567 54.3876 32.6233 54.3876 34.0235V38.2979H53.4871V34.3797C53.4871 33.1883 52.7787 32.4882 51.8182 32.4882C50.8577 32.4882 50.1253 33.2006 50.1253 34.3797V38.2979H49.2248Z" fill="#59524C"/>
<path d="M57.7284 38.4452C56.5037 38.4452 55.6032 37.6714 55.6032 36.5906C55.6032 35.5711 56.2275 34.7605 57.6563 34.5148L59.9856 34.1218V33.7779C59.9856 32.9918 59.3613 32.4514 58.4728 32.4514C57.6803 32.4514 57.068 32.8936 56.7798 33.5322L55.9634 33.0778C56.3236 32.2426 57.3922 31.567 58.4728 31.567C59.8896 31.567 60.8861 32.4759 60.8861 33.7779V36.5169C60.8861 37.1801 60.9221 37.6469 61.0422 38.2979H60.1417C60.0577 37.868 60.0216 37.5732 59.9976 37.3275C59.5894 37.9785 58.7369 38.4452 57.7284 38.4452ZM56.5637 36.5537C56.5637 37.1433 57.068 37.61 57.7884 37.61C59.0971 37.61 59.9856 36.6643 59.9856 35.4483V34.957L57.8724 35.3132C56.9359 35.4729 56.5637 35.9519 56.5637 36.5537Z" fill="#59524C"/>
<path d="M64.8423 38.3715C63.6897 38.3715 63.0413 37.6592 63.0413 36.3818V32.6356H61.8526V31.7144H62.1528C62.6931 31.7144 63.0413 31.3091 63.0413 30.7441V30.1914H63.9418V31.7144H65.3586V32.6356H63.9418V36.3818C63.9418 37.045 64.1939 37.5118 64.9984 37.5118C65.1304 37.5118 65.3226 37.4995 65.4546 37.4749V38.2979C65.2625 38.347 64.9864 38.3715 64.8423 38.3715Z" fill="#59524C"/>
<path d="M68.5958 38.2979V29H69.4963V32.5251C69.8805 31.9232 70.5528 31.567 71.3453 31.567C72.702 31.567 73.7586 32.6233 73.7586 34.0235V38.2979H72.8581V34.3797C72.8581 33.1883 72.1497 32.4882 71.1892 32.4882C70.2287 32.4882 69.4963 33.2006 69.4963 34.3797V38.2979H68.5958Z" fill="#59524C"/>
<path d="M78.1679 38.4452C76.367 38.4452 74.9742 36.9836 74.9742 34.9816C74.9742 33.0041 76.3069 31.567 78.0719 31.567C79.9209 31.567 81.0375 33.1269 81.0375 34.6991C81.0375 34.8588 81.0255 35.0798 80.9895 35.2886H75.9227C75.9587 36.7011 77.0153 37.5855 78.1679 37.5855C79.1045 37.5855 79.7288 37.0696 80.137 36.3818L80.9054 36.7994C80.5092 37.696 79.4767 38.4452 78.1679 38.4452ZM75.9467 34.4289H80.065C80.065 33.262 79.1525 32.4268 78.0719 32.4268C77.0273 32.4268 76.0788 33.2006 75.9467 34.4289Z" fill="#59524C"/>
<path d="M82.3851 38.2979V29H83.2856V38.2979H82.3851Z" fill="#59524C"/>
<path d="M84.8886 40.7543V31.7144H85.7891V32.7093C86.3054 32.0092 87.1339 31.567 88.1424 31.567C89.9674 31.567 91.3122 33.0287 91.3122 35.0061C91.3122 36.9836 89.9554 38.4452 88.1424 38.4452C87.1459 38.4452 86.2814 38.0031 85.7891 37.2293V40.7543H84.8886ZM85.7891 35.0061C85.7891 36.4309 86.7977 37.5241 88.0944 37.5241C89.3911 37.5241 90.3517 36.4432 90.3517 35.0061C90.3517 33.5691 89.3791 32.4882 88.0944 32.4882C86.7977 32.4882 85.7891 33.5814 85.7891 35.0061Z" fill="#59524C"/>
<path d="M94.8901 38.4452C93.6534 38.4452 92.6688 37.7574 92.2606 36.6643L93.017 36.2958C93.3892 37.1064 94.0856 37.61 94.8901 37.61C95.6585 37.61 96.2588 37.1924 96.2588 36.566C96.2588 35.8905 95.5624 35.6571 95.1782 35.5466L94.2537 35.2764C93.065 34.9324 92.5728 34.2938 92.5728 33.4708C92.5728 32.3163 93.5333 31.567 94.734 31.567C95.8146 31.567 96.7871 32.1812 97.1593 33.2129L96.3909 33.5814C96.0667 32.8444 95.4304 32.4023 94.698 32.4023C93.9776 32.4023 93.5093 32.8199 93.5093 33.3971C93.5093 34.0727 94.1216 34.2692 94.4578 34.3675L95.5264 34.6868C96.559 34.9939 97.1833 35.6817 97.1833 36.566C97.1833 37.6592 96.2348 38.4452 94.8901 38.4452Z" fill="#59524C"/>
<path d="M100.458 41C100.206 41 99.9294 40.9632 99.6772 40.8649V40.0051C99.8333 40.0297 100.097 40.0788 100.362 40.0788C101.142 40.0788 101.478 39.8086 101.874 38.8628L102.103 38.2979L99.5331 31.7144H100.506L102.607 37.1433L104.708 31.7144H105.705L102.763 39.1331C102.379 40.1034 101.73 41 100.458 41Z" fill="#59524C"/>
<path d="M109.419 38.4452C107.594 38.4452 106.141 36.9836 106.141 34.9939C106.141 33.0287 107.546 31.567 109.419 31.567C111.28 31.567 112.685 33.0164 112.685 34.9939C112.685 37.0205 111.208 38.4452 109.419 38.4452ZM107.102 34.9939C107.102 36.4309 108.122 37.5241 109.419 37.5241C110.704 37.5241 111.724 36.4309 111.724 34.9939C111.724 33.5691 110.704 32.4882 109.419 32.4882C108.122 32.4882 107.102 33.5691 107.102 34.9939Z" fill="#59524C"/>
<path d="M116.314 38.4452C114.957 38.4452 113.901 37.3889 113.901 35.8659V31.7144H114.801V35.7554C114.801 36.824 115.486 37.5241 116.47 37.5241C117.455 37.5241 118.163 36.8117 118.163 35.6325V31.7144H119.064V36.652C119.064 37.3153 119.1 37.7451 119.208 38.2979H118.307C118.235 37.9417 118.199 37.696 118.175 37.4504C117.803 38.0768 117.119 38.4452 116.314 38.4452Z" fill="#59524C"/>
<path d="M125.417 38.4452C123.52 38.4452 122.211 36.9591 122.211 34.9939C122.211 33.0287 123.52 31.567 125.417 31.567C126.606 31.567 127.674 32.2794 128.095 33.2497L127.278 33.6796C126.954 32.9795 126.27 32.4882 125.417 32.4882C124.144 32.4882 123.172 33.5568 123.172 35.0061C123.172 36.4432 124.144 37.5241 125.417 37.5241C126.27 37.5241 126.942 37.045 127.278 36.3081L128.095 36.7625C127.674 37.7206 126.606 38.4452 125.417 38.4452Z" fill="#59524C"/>
<path d="M129.435 38.2979V29H130.335V32.5251C130.719 31.9232 131.392 31.567 132.184 31.567C133.541 31.567 134.597 32.6233 134.597 34.0235V38.2979H133.697V34.3797C133.697 33.1883 132.989 32.4882 132.028 32.4882C131.067 32.4882 130.335 33.2006 130.335 34.3797V38.2979H129.435Z" fill="#59524C"/>
<path d="M139.091 38.4452C137.266 38.4452 135.813 36.9836 135.813 34.9939C135.813 33.0287 137.218 31.567 139.091 31.567C140.952 31.567 142.357 33.0164 142.357 34.9939C142.357 37.0205 140.88 38.4452 139.091 38.4452ZM136.774 34.9939C136.774 36.4309 137.794 37.5241 139.091 37.5241C140.376 37.5241 141.396 36.4309 141.396 34.9939C141.396 33.5691 140.376 32.4882 139.091 32.4882C137.794 32.4882 136.774 33.5691 136.774 34.9939Z" fill="#59524C"/>
<path d="M146.718 38.4452C144.893 38.4452 143.44 36.9836 143.44 34.9939C143.44 33.0287 144.845 31.567 146.718 31.567C148.579 31.567 149.984 33.0164 149.984 34.9939C149.984 37.0205 148.507 38.4452 146.718 38.4452ZM144.401 34.9939C144.401 36.4309 145.422 37.5241 146.718 37.5241C148.003 37.5241 149.024 36.4309 149.024 34.9939C149.024 33.5691 148.003 32.4882 146.718 32.4882C145.422 32.4882 144.401 33.5691 144.401 34.9939Z" fill="#59524C"/>
<path d="M153.565 38.4452C152.329 38.4452 151.344 37.7574 150.936 36.6643L151.692 36.2958C152.065 37.1064 152.761 37.61 153.565 37.61C154.334 37.61 154.934 37.1924 154.934 36.566C154.934 35.8905 154.238 35.6571 153.854 35.5466L152.929 35.2764C151.74 34.9324 151.248 34.2938 151.248 33.4708C151.248 32.3163 152.209 31.567 153.409 31.567C154.49 31.567 155.462 32.1812 155.835 33.2129L155.066 33.5814C154.742 32.8444 154.106 32.4023 153.373 32.4023C152.653 32.4023 152.185 32.8199 152.185 33.3971C152.185 34.0727 152.797 34.2692 153.133 34.3675L154.202 34.6868C155.234 34.9939 155.859 35.6817 155.859 36.566C155.859 37.6592 154.91 38.4452 153.565 38.4452Z" fill="#59524C"/>
<path d="M160.13 38.4452C158.329 38.4452 156.937 36.9836 156.937 34.9816C156.937 33.0041 158.269 31.567 160.034 31.567C161.883 31.567 163 33.1269 163 34.6991C163 34.8588 162.988 35.0798 162.952 35.2886H157.885C157.921 36.7011 158.978 37.5855 160.13 37.5855C161.067 37.5855 161.691 37.0696 162.1 36.3818L162.868 36.7994C162.472 37.696 161.439 38.4452 160.13 38.4452ZM157.909 34.4289H162.027C162.027 33.262 161.115 32.4268 160.034 32.4268C158.99 32.4268 158.041 33.2006 157.909 34.4289Z" fill="#59524C"/>
</svg>
