<svg width="20" height="20" viewBox="0 0 20 20" fill="none" xmlns="http://www.w3.org/2000/svg">
<path fill-rule="evenodd" clip-rule="evenodd" d="M9.47 6.47C9.61062 6.32955 9.80125 6.25066 10 6.25066C10.1987 6.25066 10.3894 6.32955 10.53 6.47L14.78 10.72C14.8537 10.7887 14.9128 10.8715 14.9538 10.9635C14.9948 11.0555 15.0168 11.1548 15.0186 11.2555C15.0204 11.3562 15.0018 11.4562 14.9641 11.5496C14.9264 11.643 14.8703 11.7278 14.799 11.799C14.7278 11.8703 14.643 11.9264 14.5496 11.9641C14.4562 12.0018 14.3562 12.0204 14.2555 12.0186C14.1548 12.0168 14.0555 11.9948 13.9635 11.9538C13.8715 11.9128 13.7887 11.8537 13.72 11.78L10 8.06L6.28 11.78C6.13782 11.9125 5.94978 11.9846 5.75548 11.9812C5.56118 11.9777 5.37579 11.899 5.23838 11.7616C5.10096 11.6242 5.02225 11.4388 5.01882 11.2445C5.0154 11.0502 5.08752 10.8622 5.22 10.72L9.47 6.47Z" fill="#59524C"/>
</svg>
