<svg width="20" height="20" viewBox="0 0 20 20" fill="none" xmlns="http://www.w3.org/2000/svg">
<path d="M13 4.5C13 3.91976 13.2018 3.35758 13.5709 2.90985C13.9399 2.46211 14.4533 2.15669 15.0228 2.04595C15.5924 1.9352 16.1828 2.02603 16.6927 2.30285C17.2027 2.57968 17.6004 3.02527 17.8179 3.56324C18.0353 4.1012 18.0588 4.69804 17.8844 5.25145C17.71 5.80486 17.3485 6.28036 16.8619 6.59646C16.3753 6.91255 15.7939 7.04955 15.2174 6.98397C14.6409 6.91839 14.1051 6.6543 13.702 6.237L6.96999 9.604C7.01177 9.86634 7.01177 10.1336 6.96999 10.396L13.703 13.763C14.1182 13.3336 14.6734 13.067 15.2681 13.0115C15.8629 12.956 16.4578 13.1153 16.9452 13.4606C17.4327 13.8058 17.7804 14.3141 17.9255 14.8936C18.0705 15.473 18.0033 16.0852 17.736 16.6194C17.4688 17.1536 17.019 17.5744 16.4683 17.8057C15.9176 18.037 15.3023 18.0634 14.7337 17.8803C14.1652 17.6971 13.681 17.3165 13.3689 16.8072C13.0567 16.2979 12.9372 15.6937 13.032 15.104L6.29899 11.737C5.95283 12.0951 5.50759 12.3417 5.02037 12.4451C4.53315 12.5484 4.02615 12.5039 3.5644 12.3172C3.10264 12.1305 2.70717 11.8102 2.4287 11.3972C2.15024 10.9843 2.00146 10.4976 2.00146 9.9995C2.00146 9.50143 2.15024 9.01471 2.4287 8.60176C2.70717 8.18881 3.10264 7.86845 3.5644 7.68176C4.02615 7.49507 4.53315 7.45056 5.02037 7.55394C5.50759 7.65732 5.95283 7.90388 6.29899 8.262L13.032 4.896C13.0109 4.76504 13.0002 4.63263 13 4.5Z" fill="#59524C"/>
</svg>
