<svg width="20" height="20" viewBox="0 0 20 20" fill="none" xmlns="http://www.w3.org/2000/svg">
<path fill-rule="evenodd" clip-rule="evenodd" d="M7.45499 2.004C7.56773 2.09379 7.65222 2.21417 7.69833 2.35073C7.74444 2.48729 7.75022 2.63424 7.71499 2.774C7.38275 4.07796 7.4334 5.45006 7.86086 6.72598C8.28832 8.00191 9.07448 9.12759 10.1252 9.96824C11.1759 10.8089 12.4467 11.3289 13.7853 11.4659C15.124 11.603 16.4737 11.3513 17.673 10.741C17.8014 10.6757 17.946 10.6487 18.0893 10.6634C18.2327 10.678 18.3688 10.7337 18.4814 10.8237C18.5939 10.9136 18.6782 11.0342 18.724 11.1708C18.7699 11.3074 18.7754 11.4543 18.74 11.594C18.3892 12.9713 17.6986 14.2386 16.7315 15.2801C15.7644 16.3216 14.5515 17.1039 13.2039 17.5555C11.8563 18.0071 10.417 18.1136 9.01758 17.8653C7.61819 17.6169 6.30341 17.0216 5.19352 16.1338C4.08364 15.246 3.21408 14.0941 2.6644 12.7835C2.11473 11.4728 1.90247 10.0452 2.04706 8.63132C2.19165 7.21742 2.68847 5.86236 3.49207 4.69008C4.29566 3.51781 5.38038 2.56575 6.64699 1.921C6.77542 1.85578 6.91991 1.82893 7.0632 1.84365C7.20648 1.85837 7.3425 1.91403 7.45499 2.004Z" fill="#59524C"/>
</svg>
